#!OML:ASF H:\LiuWeirdWalks\Patient Classification 1\Patient 1\Session 1\male.ASF
:FULLY-SPECIFIED
:DEGREES
662
root 2.27373 18.0995 30.2437 -4.81304 -1.70631 -1.12707
lowerback 6.36631 -1.08962 -0.810079
upperback -0.421443 -1.38061 3.42091
thorax -3.90606 -0.634962 4.14027
lowerneck -16.6717 3.70997 6.40001
upperneck 26.7377 6.16899 -9.26712
head 12.056 2.25753 -3.63072
rclavicle 9.88954e-015 -2.38542e-014
rhumerus -41.5869 -10.3477 -68.7545
rradius 29.785
rwrist -5.45323
rhand -15.5433 -0.840325
rfingers 7.12502
rthumb 10.6407 -30.5509
lclavicle 9.88954e-015 -2.38542e-014
lhumerus -42.4002 5.31161 79.0356
lradius 34.4689
lwrist 4.63779
lhand -10.9141 -1.1475
lfingers 7.12502
lthumb 15.1033 28.2815
rfemur -20.197 -5.09486 19.7331
rtibia 73.0599
rfoot 1.38968 -16.2971
rtoes -8.26457
lfemur -2.74936 -2.35832 -21.5396
ltibia 23.8108
lfoot -6.60526 12.4935
ltoes -9.92117
663
root 2.27927 18.0899 30.355 -4.85525 -1.71005 -1.243
lowerback 6.46084 -1.11526 -0.620733
upperback -0.40919 -1.3981 3.45362
thorax -3.94892 -0.646743 4.07146
lowerneck -16.701 3.73692 6.41818
upperneck 26.7193 6.21082 -9.30401
head 12.0612 2.27297 -3.64067
rclavicle 3.16565e-014 -1.82882e-014
rhumerus -41.6069 -10.3336 -68.831
rradius 29.9582
rwrist -5.69514
rhand -15.6128 -0.96838
rfingers 7.12502
rthumb 10.5737 -30.6824
lclavicle 3.16565e-014 -1.82882e-014
lhumerus -42.1939 5.14812 79.012
lradius 34.6725
lwrist 4.75653
lhand -11.0057 -1.17937
lfingers 7.12502
lthumb 15.015 28.2562
rfemur -21.0113 -5.13415 19.9816
rtibia 72.3215
rfoot -0.208112 -16.5971
rtoes -7.51829
lfemur -2.52572 -2.46947 -21.4962
ltibia 24.2609
lfoot -6.96108 12.7801
ltoes -10.014
664
root 2.2803 18.0796 30.4665 -4.93897 -1.73526 -1.60086
lowerback 6.59524 -1.18359 -0.322384
upperback -0.353984 -1.4597 3.5998
thorax -3.96646 -0.682471 4.06438
lowerneck -16.7479 3.82109 6.5211
upperneck 26.6506 6.33127 -9.42897
head 12.0648 2.32143 -3.68507
rclavicle 1.93815e-015 2.8625e-014
rhumerus -41.5223 -10.2298 -68.9287
rradius 30.0898
rwrist -5.77949
rhand -15.6413 -1.0224
rfingers 7.12502
rthumb 10.5462 -30.7378
lclavicle 1.93815e-015 2.8625e-014
lhumerus -41.9917 5.12551 78.9633
lradius 34.9195
lwrist 4.87151
lhand -11.1131 -1.19407
lfingers 7.12502
lthumb 14.9116 28.2492
rfemur -21.676 -5.11185 20.538
rtibia 71.3387
rfoot -1.56253 -17.0346
rtoes -6.54905
lfemur -2.26391 -2.53461 -21.1616
ltibia 24.7482
lfoot -7.36449 13.0264
ltoes -10.1406
665
root 2.28167 18.0689 30.5778 -5.0035 -1.75741 -1.86292
lowerback 6.71151 -1.23764 -0.106372
upperback -0.302894 -1.50947 3.71546
thorax -3.97787 -0.7109 4.07064
lowerneck -16.8102 3.89691 6.61681
upperneck 26.5832 6.43934 -9.5483
head 12.0706 2.36389 -3.72789
rclavicle 1.44119e-014 -3.10104e-014
rhumerus -41.4534 -10.1659 -68.989
rradius 30.2091
rwrist -5.74143
rhand -15.6253 -0.986614
rfingers 7.12502
rthumb 10.5616 -30.7012
lclavicle 1.44119e-014 -3.10104e-014
lhumerus -41.7948 5.07078 78.9351
lradius 35.212
lwrist 5.02097
lhand -11.2139 -1.18581
lfingers 7.12502
lthumb 14.8145 28.2646
rfemur -22.2975 -5.07994 20.9855
rtibia 70.1591
rfoot -2.74382 -17.4973
rtoes -5.68849
lfemur -2.00976 -2.57497 -20.928
ltibia 25.2043
lfoot -7.75806 13.2544
ltoes -10.3017
666
root 2.28298 18.0591 30.6909 -5.06702 -1.75799 -2.06471
lowerback 6.80129 -1.29166 0.0528369
upperback -0.24517 -1.56489 3.81173
thorax -3.96622 -0.741476 4.0884
lowerneck -16.8892 3.97021 6.70903
upperneck 26.5162 6.54218 -9.66207
head 12.0795 2.40385 -3.76865
rclavicle -1.19271e-014 -6.36111e-015
rhumerus -41.395 -10.1439 -69.0127
rradius 30.3056
rwrist -5.57925
rhand -15.5532 -0.863882
rfingers 7.12502
rthumb 10.6312 -30.575
lclavicle -1.19271e-014 -6.36111e-015
lhumerus -41.6064 5.00238 78.9159
lradius 35.5431
lwrist 5.21033
lhand -11.3108 -1.16858
lfingers 7.12502
lthumb 14.721 28.2887
rfemur -22.8311 -5.06866 21.3505
rtibia 68.7783
rfoot -3.84374 -17.9556
rtoes -5.3103
lfemur -1.71031 -2.60193 -20.7612
ltibia 25.584
lfoot -8.13367 13.447
ltoes -10.4922
667
root 2.28424 18.05 30.8022 -5.10257 -1.74725 -2.10299
lowerback 6.88694 -1.31947 0.0712627
upperback -0.210919 -1.59807 3.85275
thorax -3.97591 -0.758155 4.12636
lowerneck -16.9712 4.0193 6.76693
upperneck 26.4722 6.61166 -9.74119
head 12.092 2.42931 -3.79611
rclavicle 2.04251e-014 2.38542e-015
rhumerus -41.3706 -10.1778 -68.996
rradius 30.3675
rwrist -5.3674
rhand -15.4573 -0.674107
rfingers 7.12502
rthumb 10.7237 -30.3804
lclavicle 2.04251e-014 2.38542e-015
lhumerus -41.4321 4.87526 78.9155
lradius 35.906
lwrist 5.41943
lhand -11.3905 -1.16128
lfingers 7.12502
lthumb 14.6443 28.3016
rfemur -23.3462 -5.06295 21.5277
rtibia 67.232
rfoot -4.83839 -18.3559
rtoes -5.28918
lfemur -1.38988 -2.62291 -20.7722
ltibia 25.8365
lfoot -8.44605 13.6143
ltoes -10.6785
668
root 2.28545 18.0425 30.9117 -5.09126 -1.71347 -1.99525
lowerback 6.94849 -1.31491 -0.00726091
upperback -0.20824 -1.59798 3.83022
thorax -4.00623 -0.756348 4.14931
lowerneck -17.0557 4.02419 6.7648
upperneck 26.4436 6.6165 -9.75388
head 12.0991 2.42771 -3.79835
rclavicle 7.85199e-015 9.54166e-015
rhumerus -41.4044 -10.2761 -68.9544
rradius 30.4182
rwrist -5.20474
rhand -15.3837 -0.494712
rfingers 7.12502
rthumb 10.7947 -30.1973
lclavicle 7.85199e-015 9.54166e-015
lhumerus -41.2585 4.64714 78.9368
lradius 36.2786
lwrist 5.62175
lhand -11.4496 -1.14485
lfingers 7.12502
lthumb 14.5874 28.3222
rfemur -23.8592 -5.06696 21.5334
rtibia 65.5145
rfoot -5.73793 -18.67
rtoes -5.5817
lfemur -1.07069 -2.62674 -20.9372
ltibia 25.9606
lfoot -8.69478 13.734
ltoes -10.8545
669
root 2.28631 18.0365 31.0193 -5.03905 -1.6699 -1.77365
lowerback 6.99494 -1.28298 -0.168571
upperback -0.233071 -1.56965 3.76143
thorax -4.05771 -0.738662 4.16799
lowerneck -17.1211 4.0054 6.74844
upperneck 26.4069 6.58502 -9.74443
head 12.0939 2.41189 -3.7953
rclavicle 2.5345e-014 -4.53229e-014
rhumerus -41.4875 -10.4001 -68.9077
rradius 30.4819
rwrist -5.16065
rhand -15.3575 -0.399783
rfingers 7.12502
rthumb 10.8199 -30.1011
lclavicle 2.5345e-014 -4.53229e-014
lhumerus -41.0861 4.34023 78.9825
lradius 36.6557
lwrist 5.86948
lhand -11.5192 -1.14812
lfingers 7.12502
lthumb 14.5202 28.3238
rfemur -24.355 -5.06542 21.4075
rtibia 63.6261
rfoot -6.48753 -18.8911
rtoes -5.88012
lfemur -0.747405 -2.61247 -21.2185
ltibia 25.959
lfoot -8.87269 13.8131
ltoes -11.0319
670
root 2.28585 18.0318 31.1264 -4.96975 -1.61306 -1.53733
lowerback 7.03121 -1.24443 -0.346235
upperback -0.270023 -1.53429 3.68446
thorax -4.1165 -0.716903 4.18657
lowerneck -17.1644 3.9687 6.71031
upperneck 26.3433 6.52579 -9.71124
head 12.0687 2.38538 -3.78306
rclavicle -4.62174e-015 3.81667e-014
rhumerus -41.5858 -10.5142 -68.8741
rradius 30.5451
rwrist -5.25082
rhand -15.3901 -0.404913
rfingers 7.12502
rthumb 10.7885 -30.1078
lclavicle -4.62174e-015 3.81667e-014
lhumerus -40.9229 4.00846 79.03
lradius 37.0349
lwrist 6.09956
lhand -11.5855 -1.17513
lfingers 7.12502
lthumb 14.4565 28.3013
rfemur -24.7754 -5.05284 21.2563
rtibia 61.5408
rfoot -7.05388 -19.0267
rtoes -6.03996
lfemur -0.394907 -2.57596 -21.5045
ltibia 25.8638
lfoot -9.01368 13.853
ltoes -11.2389
671
root 2.28541 18.0291 31.2336 -4.86796 -1.55003 -1.25539
lowerback 6.98627 -1.17706 -0.540286
upperback -0.416084 -1.46133 3.58475
thorax -4.24633 -0.674027 4.18682
lowerneck -16.7382 3.85196 6.63573
upperneck 26.1715 6.37155 -9.66476
head 11.8933 2.32892 -3.77398
rclavicle 3.67752e-015 2.06736e-014
rhumerus -41.9694 -10.6118 -68.753
rradius 30.6556
rwrist -5.42996
rhand -15.4544 -0.455165
rfingers 7.12502
rthumb 10.7265 -30.1613
lclavicle 3.67752e-015 2.06736e-014
lhumerus -40.9906 3.55279 79.1093
lradius 37.4406
lwrist 6.30731
lhand -11.6326 -1.2197
lfingers 7.12502
lthumb 14.411 28.26
rfemur -25.1331 -5.02717 21.0399
rtibia 59.2573
rfoot -7.45201 -19.0489
rtoes -6.13455
lfemur -0.033024 -2.51494 -21.8351
ltibia 25.6766
lfoot -9.10435 13.8692
ltoes -11.4919
672
root 2.28094 18.0288 31.3424 -4.79779 -1.48804 -1.1703
lowerback 6.96114 -1.15704 -0.639027
upperback -0.503418 -1.44165 3.56787
thorax -4.32268 -0.660103 4.22456
lowerneck -16.4286 3.79179 6.62055
upperneck 25.9968 6.28833 -9.66282
head 11.753 2.30129 -3.78003
rclavicle -1.3418e-014 -1.66979e-014
rhumerus -42.2068 -10.6682 -68.6838
rradius 30.7202
rwrist -5.57189
rhand -15.5191 -0.515481
rfingers 7.12502
rthumb 10.6641 -30.2249
lclavicle -1.3418e-014 -1.66979e-014
lhumerus -41.0072 3.23197 79.1485
lradius 37.8519
lwrist 6.5408
lhand -11.7192 -1.28215
lfingers 7.12502
lthumb 14.3276 28.2035
rfemur -25.3129 -4.95085 21.0364
rtibia 56.7503
rfoot -7.72101 -19.019
rtoes -6.33168
lfemur 0.418807 -2.42584 -21.9291
ltibia 25.4028
lfoot -9.16907 13.8354
ltoes -11.779
673
root 2.2764 18.0308 31.4532 -4.7264 -1.40444 -1.05203
lowerback 6.90689 -1.14194 -0.759827
upperback -0.581286 -1.43174 3.53453
thorax -4.37191 -0.651114 4.25732
lowerneck -16.1367 3.72701 6.59263
upperneck 25.8357 6.19674 -9.64115
head 11.6201 2.27022 -3.77784
rclavicle 7.90169e-015 1.74931e-014
rhumerus -42.4407 -10.7616 -68.6
rradius 30.7664
rwrist -5.65776
rhand -15.5609 -0.572871
rfingers 7.12502
rthumb 10.6238 -30.2843
lclavicle 7.90169e-015 1.74931e-014
lhumerus -41.0152 2.91086 79.1833
lradius 38.2632
lwrist 6.75391
lhand -11.8071 -1.33117
lfingers 7.12502
lthumb 14.2429 28.1604
rfemur -25.3755 -4.8687 20.9667
rtibia 54.0533
rfoot -7.88147 -18.8651
rtoes -6.59567
lfemur 0.916097 -2.33135 -22.0604
ltibia 25.0467
lfoot -9.19993 13.785
ltoes -12.0727
674
root 2.27209 18.0349 31.567 -4.65957 -1.28527 -0.912393
lowerback 6.82982 -1.13933 -0.87668
upperback -0.60785 -1.44049 3.48101
thorax -4.35387 -0.653309 4.26644
lowerneck -16.0488 3.67953 6.56549
upperneck 25.7278 6.11926 -9.60103
head 11.5505 2.24135 -3.76697
rclavicle -1.10822e-014 -1.82882e-014
rhumerus -42.568 -10.916 -68.5374
rradius 30.7654
rwrist -5.69639
rhand -15.6051 -0.657264
rfingers 7.12502
rthumb 10.5811 -30.3709
lclavicle -1.10822e-014 -1.82882e-014
lhumerus -40.9126 2.60284 79.2056
lradius 38.6487
lwrist 6.95333
lhand -11.9021 -1.34725
lfingers 7.12502
lthumb 14.1513 28.1508
rfemur -25.303 -4.79828 20.8387
rtibia 51.1735
rfoot -7.95553 -18.5868
rtoes -6.9496
lfemur 1.4582 -2.24766 -22.2202
ltibia 24.6312
lfoot -9.21274 13.7166
ltoes -12.3283
675
root 2.26654 18.04 31.6799 -4.58194 -1.14753 -0.775079
lowerback 6.77447 -1.05672 -0.797888
upperback -0.570466 -1.33125 3.33102
thorax -4.29729 -0.603796 4.05046
lowerneck -16.3551 3.55698 6.41303
upperneck 25.7524 5.91394 -9.39279
head 11.5885 2.15044 -3.69205
rclavicle 1.51573e-014 -7.95139e-015
rhumerus -42.6596 -11.4599 -68.4143
rradius 30.7234
rwrist -5.61128
rhand -15.6169 -0.700398
rfingers 7.12502
rthumb 10.5697 -30.4146
lclavicle 1.51573e-014 -7.95139e-015
lhumerus -40.5455 2.01109 79.2811
lradius 38.9837
lwrist 7.20127
lhand -12.0163 -1.35775
lfingers 7.12502
lthumb 14.0413 28.148
rfemur -25.1472 -4.67641 20.6995
rtibia 48.1487
rfoot -7.92033 -18.2425
rtoes -7.34786
lfemur 2.0068 -2.18065 -22.3714
ltibia 24.1623
lfoot -9.18899 13.6328
ltoes -12.5389
